# xmcd CD database file
#
# Track frame offsets:
#	150
#	13327
#	34104
#	48281
#	66133
#	80079
#	99281
#	119008
#	131760
#	146912
#	167314
#	182540
#
# Disc length: 2651 seconds
#
# Revision: 0
# Processed by: cddbd v1.5.1PL2 Copyright (c) Steve Scherf et al.
# Submitted via: CDex 1.50
#
DISCID=a40a590c
DTITLE=Reg Poole - Goin' Rodeoin' Again
DYEAR=1998
DGENRE=Country
TTITLE0=Goin' Rodeoin' Again
TTITLE1=Circle Of Sawdust
TTITLE2=Those Rodeo Blues
TTITLE3=Coley
TTITLE4=Rusty The Rodeo Clown
TTITLE5=Way Back In '64
TTITLE6=Chainsaw
TTITLE7=I'm A Rodeoin' Man
TTITLE8=My Hero The Rodeo Clown
TTITLE9=Stumpy
TTITLE10=Rodeos Don't Turn Me On Anymore
TTITLE11=Return Of The Bullrider
EXTD=YEAR: 1998
EXTT0=
EXTT1=
EXTT2=
EXTT3=
EXTT4=
EXTT5=
EXTT6=
EXTT7=
EXTT8=
EXTT9=
EXTT10=
EXTT11=
PLAYORDER=
